<svg width="656" height="716" viewBox="0 0 656 716" fill="none" xmlns="http://www.w3.org/2000/svg">
<path d="M553.041 0.359687C641.142 7.91853 715.796 85.2864 751.84 166.031C786.814 244.38 750.772 331.821 738.937 416.8C727.294 500.41 742.921 597.672 683.393 657.527C624.12 717.125 527.746 718.723 443.853 713.502C374 709.155 322.172 654.868 256.396 630.954C180.469 603.349 79.3298 626.94 29.9319 563.013C-19.5864 498.93 3.33874 405.236 20.8861 326.174C37.1077 253.085 61.8931 173.403 125.255 133.522C185.19 95.7982 264.865 151.1 332.484 130.052C415.96 104.067 465.934 -7.11387 553.041 0.359687Z" fill="#1D1D1D"/>
</svg>
