<svg width="656" height="684" viewBox="0 0 656 684" fill="none" xmlns="http://www.w3.org/2000/svg">
<path d="M553.041 -31.6403C641.142 -24.0815 715.796 53.2864 751.84 134.031C786.814 212.38 750.772 299.821 738.937 384.8C727.294 468.41 742.921 565.672 683.393 625.527C624.12 685.125 527.746 686.723 443.853 681.502C374 677.155 322.172 622.868 256.396 598.954C180.469 571.349 79.3298 594.94 29.9319 531.013C-19.5864 466.93 3.33874 373.236 20.8861 294.174C37.1077 221.085 61.8931 141.403 125.255 101.522C185.19 63.7982 264.865 119.1 332.484 98.0517C415.96 72.067 465.934 -39.1139 553.041 -31.6403Z" fill="#1D1D1D"/>
</svg>
