<svg width="60" height="57" viewBox="0 0 60 57" fill="none" xmlns="http://www.w3.org/2000/svg">
<g clip-path="url(#clip0_8_64)">
<path d="M59.4141 23.508C59.2477 23.3755 57.7441 22.29 54.5168 22.29C53.668 22.2947 52.821 22.3654 51.9844 22.5016C51.3727 18.4492 47.8383 16.4899 47.6988 16.3785L46.8363 15.902L46.2797 16.6702C45.5778 17.7131 45.0608 18.8583 44.7492 20.0601C44.1633 22.3646 44.5266 24.5355 45.7512 26.3891C44.2758 27.184 41.884 27.3688 41.3824 27.3911H1.86798C1.62174 27.391 1.3779 27.4371 1.15051 27.5268C0.923119 27.6166 0.716664 27.7482 0.543038 27.9141C0.369411 28.0799 0.232044 28.2768 0.138848 28.4933C0.0456514 28.7099 -0.00153262 28.9418 1.31866e-05 29.1757C-0.053068 32.4714 0.532866 35.7482 1.72853 38.8423C3.09259 42.2323 5.12345 44.7538 7.73439 46.2835C10.6899 48.0046 15.5039 48.9843 20.9297 48.9843C23.3844 48.9844 25.834 48.7716 28.2481 48.3486C31.6135 47.7689 34.8506 46.6497 37.8211 45.0388C40.2665 43.6891 42.4656 41.9721 44.3332 39.9545C47.4773 36.5913 49.3418 32.8295 50.7059 29.4896H51.2625C54.6855 29.4896 56.8008 28.1916 57.9691 27.0794C58.7446 26.3811 59.3522 25.532 59.7504 24.5901L60.0012 23.9021L59.4141 23.508Z" fill="#484848"/>
<path d="M5.54187 26.3146H10.8282C10.9525 26.3146 11.0717 26.2677 11.1597 26.1842C11.2476 26.1007 11.2969 25.9874 11.2969 25.8693V21.3628C11.2969 21.2446 11.2476 21.1314 11.1597 21.0479C11.0717 20.9644 10.9525 20.9174 10.8282 20.9174H5.54187C5.41755 20.9174 5.29832 20.9644 5.21041 21.0479C5.12251 21.1314 5.07312 21.2446 5.07312 21.3628V25.8649C5.07776 25.9816 5.12864 26.0923 5.21556 26.1749C5.30248 26.2574 5.41903 26.3058 5.54187 26.3102V26.3146ZM12.8321 26.3146H18.1196C18.2439 26.3146 18.3632 26.2677 18.4511 26.1842C18.539 26.1007 18.5884 25.9874 18.5884 25.8693V21.3628C18.5884 21.2446 18.539 21.1314 18.4511 21.0479C18.3632 20.9644 18.2439 20.9174 18.1196 20.9174H12.8321C12.7078 20.9174 12.5886 20.9644 12.5006 21.0479C12.4127 21.1314 12.3634 21.2446 12.3634 21.3628V25.8649C12.368 25.9816 12.4189 26.0923 12.5058 26.1749C12.5927 26.2574 12.7093 26.3058 12.8321 26.3102V26.3146ZM20.2618 26.3146H25.5469C25.6713 26.3146 25.7905 26.2677 25.8784 26.1842C25.9663 26.1007 26.0157 25.9874 26.0157 25.8693V21.3628C26.0157 21.2446 25.9663 21.1314 25.8784 21.0479C25.7905 20.9644 25.6713 20.9174 25.5469 20.9174H20.2618C20.1375 20.9174 20.0182 20.9644 19.9303 21.0479C19.8424 21.1314 19.793 21.2446 19.793 21.3628V25.8649C19.7909 25.9239 19.8016 25.9827 19.8244 26.0376C19.8472 26.0926 19.8817 26.1425 19.9256 26.1842C19.9696 26.226 20.0221 26.2587 20.0799 26.2804C20.1378 26.3021 20.1997 26.3122 20.2618 26.3102V26.3146ZM27.5813 26.3146H32.8688C32.9931 26.3146 33.1124 26.2677 33.2003 26.1842C33.2882 26.1007 33.3376 25.9874 33.3376 25.8693V21.3628C33.3376 21.2446 33.2882 21.1314 33.2003 21.0479C33.1124 20.9644 32.9931 20.9174 32.8688 20.9174H27.5813C27.457 20.9174 27.3378 20.9644 27.2499 21.0479C27.162 21.1314 27.1126 21.2446 27.1126 21.3628V25.8649C27.1126 25.983 27.162 26.0962 27.2499 26.1797C27.3378 26.2633 27.457 26.3102 27.5813 26.3102V26.3146ZM12.8321 19.8799H18.1196C18.2424 19.8755 18.359 19.8271 18.4459 19.7445C18.5328 19.662 18.5837 19.5512 18.5884 19.4346V14.928C18.5884 14.8099 18.539 14.6966 18.4511 14.6131C18.3632 14.5296 18.2439 14.4827 18.1196 14.4827H12.8321C12.7078 14.4827 12.5886 14.5296 12.5006 14.6131C12.4127 14.6966 12.3634 14.8099 12.3634 14.928V19.4301C12.3725 19.5453 12.4249 19.6536 12.5109 19.7353C12.5969 19.817 12.7108 19.8667 12.8321 19.8754V19.8799ZM20.2618 19.8799H25.5469C25.6698 19.8755 25.7863 19.8271 25.8733 19.7445C25.9602 19.662 26.0111 19.5512 26.0157 19.4346V14.928C26.0157 14.8099 25.9663 14.6966 25.8784 14.6131C25.7905 14.5296 25.6713 14.4827 25.5469 14.4827H20.2618C20.1375 14.4827 20.0182 14.5296 19.9303 14.6131C19.8424 14.6966 19.793 14.8099 19.793 14.928V19.4301C19.793 19.5482 19.8424 19.6615 19.9303 19.745C20.0182 19.8285 20.1375 19.8754 20.2618 19.8754V19.8799ZM27.5813 19.8799H32.8688C32.9917 19.8755 33.1082 19.8271 33.1951 19.7445C33.2821 19.662 33.3329 19.5512 33.3376 19.4346V14.928C33.3329 14.8113 33.2821 14.7006 33.1951 14.618C33.1082 14.5354 32.9917 14.4871 32.8688 14.4827H27.5813C27.457 14.4827 27.3378 14.5296 27.2499 14.6131C27.162 14.6966 27.1126 14.8099 27.1126 14.928V19.4301C27.1172 19.5468 27.1681 19.6575 27.255 19.7401C27.3419 19.8227 27.4585 19.871 27.5813 19.8754V19.8799ZM27.5813 13.4184H32.8688C32.9931 13.4184 33.1124 13.3715 33.2003 13.288C33.2882 13.2044 33.3376 13.0912 33.3376 12.9731V8.46094C33.3329 8.34424 33.2821 8.23352 33.1951 8.15094C33.1082 8.06836 32.9917 8.02003 32.8688 8.01562H27.5813C27.457 8.01562 27.3378 8.06254 27.2499 8.14605C27.162 8.22957 27.1126 8.34283 27.1126 8.46094V12.963C27.1175 13.0797 27.1684 13.1902 27.2553 13.2728C27.3422 13.3553 27.4586 13.4037 27.5813 13.4084V13.4184ZM34.9548 26.3146H40.2423C40.3666 26.3146 40.4858 26.2677 40.5737 26.1842C40.6616 26.1007 40.711 25.9874 40.711 25.8693V21.3628C40.711 21.2446 40.6616 21.1314 40.5737 21.0479C40.4858 20.9644 40.3666 20.9174 40.2423 20.9174H34.9548C34.8304 20.9174 34.7112 20.9644 34.6233 21.0479C34.5354 21.1314 34.486 21.2446 34.486 21.3628V25.8649C34.4907 25.9816 34.5415 26.0923 34.6285 26.1749C34.7154 26.2574 34.8319 26.3058 34.9548 26.3102" fill="#484848"/>
</g>
<defs>
<clipPath id="clip0_8_64">
<rect width="60" height="57" fill="white"/>
</clipPath>
</defs>
</svg>
