<svg width="58" height="55" viewBox="0 0 58 55" fill="none" xmlns="http://www.w3.org/2000/svg">
<path d="M28.9414 0.669922C13.4727 0.669922 0.816406 12.6934 0.816406 27.3887C0.816406 42.084 13.4727 54.1074 28.9414 54.1074C38.9492 54.1074 47.7852 49.0754 52.7656 41.5385C52.8609 41.3953 52.9034 41.226 52.8865 41.0574C52.8696 40.8887 52.7943 40.7301 52.6722 40.6066C52.5502 40.483 52.3884 40.4014 52.2123 40.3746C52.0362 40.3479 51.8558 40.3774 51.6992 40.4586C51.0135 40.841 50.2916 41.1615 49.543 41.416C45.2305 42.8188 42.8516 42.8744 39.9219 42.752C36.6523 42.6184 32.668 41.5496 29.8672 39.9688C27.0664 38.3879 24.7695 36.1168 23.5273 34.1463C22.2852 32.1758 21.5352 29.7043 21.875 26.5426C22.2148 23.3141 25.3203 20.6867 28.9531 20.6867C32.8789 20.6867 36.0781 23.648 36.0781 27.3775C36.0781 29.2701 35.1289 30.9066 33.9102 32.2203C33.6406 32.4541 33.0195 33.3002 34.5898 34.4469C36.4531 35.8051 40.6367 36.4508 43.9531 36.2949C47.2695 36.1391 50.8789 34.8922 53.3516 32.4207C55.3203 30.4502 57.0781 27.2885 57.0781 23.8039C57.0664 9.87676 43.4727 0.669922 28.9414 0.669922Z" fill="#484848"/>
</svg>
