<svg width="58" height="47" viewBox="0 0 58 47" fill="none" xmlns="http://www.w3.org/2000/svg">
<path d="M52.8312 13.3691C52.8184 13.3691 53.1699 11.6447 52.8687 8.64104C52.5922 5.63518 51.9312 2.87647 50.8473 0.34375C50.8473 0.34375 50.2941 0.440605 49.2394 0.69332C48.1848 0.946035 46.4609 1.45703 44.1043 2.47902C41.7816 3.50324 39.3336 4.8659 36.7848 6.51912C35.0516 6.0482 32.4652 5.80774 29 5.80774C25.6977 5.80774 23.1113 6.0482 21.2152 6.51912C15.616 2.79186 10.9242 0.733398 7.13984 0.34375C6.06094 2.87684 5.39141 5.65076 5.13125 8.66553C4.83008 11.6714 5.18164 13.4059 5.18164 13.4059C2.13008 16.5776 0.875 21.1488 0.875 24.9228C0.875 27.8418 0.962891 30.4825 1.64141 32.8271C2.34453 35.1549 3.23516 37.0575 4.28984 38.5204C5.38105 39.9997 6.72171 41.2977 8.25781 42.3623C9.82695 43.4845 11.2707 44.2928 12.5773 44.7993C13.8957 45.3292 15.3898 45.7155 17.0973 45.9927C18.3627 46.2253 19.6415 46.3867 20.927 46.4759C20.927 46.4759 24.4426 46.6563 29.0129 46.6563C33.5832 46.6563 37.0859 46.4759 37.0859 46.4759C38.3713 46.3837 39.65 46.2208 40.9156 45.9883C42.4601 45.7515 43.9719 45.3512 45.4227 44.7948C46.7293 44.2761 48.173 43.4801 49.7586 42.3579C51.294 41.2948 52.6309 39.9947 53.7137 38.5115C54.7684 37.052 55.659 35.146 56.3621 32.8182C57.0652 30.4903 57.125 27.8296 57.125 24.9105C57.125 21.2567 55.8699 16.6255 52.8312 13.3691ZM44.6199 41.543C41.116 43.1227 35.968 43.7617 29.1383 43.7617H28.8746C22.0437 43.7617 16.8957 43.1349 13.4562 41.543C10.0168 39.951 8.2707 36.7057 8.2707 31.8095C8.2707 28.8794 9.35 26.5036 11.4723 24.6845C12.4016 23.9052 13.5312 23.3575 14.9375 23.0324C16.3437 22.7073 17.6246 22.6984 18.8293 22.7307C20.0105 22.7786 21.6676 22.9957 23.7641 23.1527C25.8605 23.3096 27.4426 23.5145 29.0129 23.5145C30.4812 23.5145 32.4277 23.2729 35.5543 23.0324C38.6809 22.792 41.0164 22.6706 42.5223 22.9111C44.0668 23.1527 45.4109 23.6592 46.5535 24.6845C48.7754 26.5897 49.8887 28.9647 49.8934 31.8095C49.8805 36.7057 48.1098 39.9632 44.6199 41.543Z" fill="#484848"/>
</svg>
