<svg width="54" height="51" viewBox="0 0 54 51" fill="none" xmlns="http://www.w3.org/2000/svg">
<path d="M51.7454 30.7992C52.1315 29.149 52.3241 27.4632 52.3196 25.7728C52.3196 12.8231 41.1059 2.31592 27.2661 2.31592C25.8323 2.31493 24.4008 2.42664 22.9864 2.64991C20.6734 1.27815 17.9998 0.554604 15.2731 0.562503C7.25984 0.562503 0.750078 6.65438 0.750078 14.1612C0.741552 16.586 1.43041 18.9669 2.74227 21.0469C2.40677 22.5982 2.23716 24.1779 2.23602 25.7616C2.23602 38.7247 13.4497 49.2185 27.2755 49.2185C28.8118 49.2222 30.3452 49.0917 31.8563 48.8288C33.9745 49.8885 36.3331 50.4407 38.727 50.4375C46.7544 50.4375 53.2501 44.3456 53.2501 36.8388C53.2635 34.7403 52.7475 32.6693 51.7454 30.7992ZM40.1251 36.9668C38.9626 38.4987 37.2528 39.7199 35.038 40.5772C32.8231 41.4344 30.2063 41.8652 27.1981 41.8652C23.6016 41.8652 20.5934 41.2674 18.2274 40.0985C16.5872 39.2784 15.1727 38.1039 14.0977 36.6696C13.0302 35.2412 12.497 33.8129 12.497 32.4391C12.497 31.5819 12.8485 30.8415 13.5364 30.2181C14.2208 29.6203 15.1091 29.3085 16.1485 29.3085C17.0098 29.3085 17.7481 29.5423 18.3505 30.0233C18.9247 30.4775 19.4169 31.1532 19.813 32.0361C20.1969 32.8816 20.6817 33.6825 21.2579 34.423C21.7516 35.033 22.4493 35.5396 23.3509 35.9426C24.2673 36.3456 25.4837 36.5527 26.9837 36.5527C29.0485 36.5527 30.7442 36.1374 32.0157 35.3191C33.2743 34.5265 33.8766 33.5657 33.8766 32.3968C33.8766 31.475 33.5614 30.7469 32.9052 30.1758C32.222 29.578 31.3325 29.1104 30.2251 28.7987C29.0895 28.4647 27.545 28.1107 25.6302 27.7344C23.0321 27.2145 20.8255 26.591 19.0677 25.8897C17.277 25.1749 15.8274 24.1752 14.7598 22.9417C13.6794 21.6814 13.1462 20.0972 13.1462 18.2392C13.1278 16.5219 13.7259 14.8499 14.8419 13.4988C15.9634 12.1351 17.5911 11.0697 19.711 10.3427C21.7899 9.61571 24.2649 9.25166 27.054 9.25166C29.297 9.25166 31.2528 9.49881 32.8934 9.96639C34.5341 10.434 35.9298 11.0964 37.0372 11.9013C38.1446 12.7062 38.952 13.5634 39.4712 14.4618C39.9903 15.3602 40.2516 16.2676 40.2516 17.1337C40.2516 17.9642 39.9095 18.7313 39.2251 19.3937C38.8932 19.7218 38.4934 19.9811 38.051 20.1555C37.6085 20.3298 37.1329 20.4154 36.654 20.4067C35.7247 20.4067 34.9993 20.1986 34.4942 19.7833C34.0255 19.3937 33.5368 18.7958 33.0036 17.9252C32.3743 16.822 31.622 15.938 30.7606 15.3146C29.9122 14.7179 28.5177 14.4062 26.5759 14.4062C24.7841 14.4062 23.3216 14.7401 22.2399 15.4081C21.2005 16.0449 20.6942 16.7852 20.6942 17.6547C20.6813 18.1529 20.8615 18.6382 21.2005 19.0185C21.6129 19.4693 22.1209 19.8323 22.6911 20.0839C23.3332 20.3905 24.0066 20.6341 24.7009 20.8109C25.404 20.9934 26.5606 21.2662 28.1614 21.6035C30.1981 22.0065 32.0579 22.4741 33.6997 22.9539C35.3684 23.4605 36.804 24.0672 37.9794 24.7853C39.1467 25.4854 40.1182 26.4439 40.8106 27.5785C41.4809 28.6918 41.8231 30.0979 41.8231 31.7088C41.8976 33.5932 41.2992 35.4462 40.1251 36.9668Z" fill="#484848"/>
</svg>
