<svg width="60" height="57" viewBox="0 0 60 57" fill="none" xmlns="http://www.w3.org/2000/svg">
<g clip-path="url(#clip0_8_50)">
<path d="M0.679688 30.9492C0.618535 30.9522 0.560713 30.9766 0.517415 31.0177C0.474118 31.0588 0.448426 31.1138 0.445313 31.1719L0 34.3603L0.438281 37.4953C0.441767 37.5542 0.468368 37.6098 0.512838 37.651C0.557307 37.6922 0.616419 37.7161 0.678516 37.718C0.739407 37.7143 0.7968 37.6897 0.839943 37.6487C0.883087 37.6077 0.909022 37.5532 0.912891 37.4953L1.4332 34.3592L0.917578 31.1719C0.913709 31.114 0.887774 31.0595 0.844631 31.0185C0.801487 30.9775 0.744095 30.9529 0.683203 30.9492H0.679688ZM3.14648 29.2036C3.14648 29.1407 3.12019 29.0804 3.07338 29.0359C3.02657 28.9914 2.96308 28.9665 2.89688 28.9665C2.83067 28.9665 2.76719 28.9914 2.72038 29.0359C2.67356 29.0804 2.64727 29.1407 2.64727 29.2036L2.06133 34.3603L2.64727 39.4035C2.64727 39.4664 2.67356 39.5267 2.72038 39.5712C2.76719 39.6156 2.83067 39.6406 2.89688 39.6406C2.96308 39.6406 3.02657 39.6156 3.07338 39.5712C3.12019 39.5267 3.14648 39.4664 3.14648 39.4035L3.81797 34.3592L3.14648 29.2025V29.2036ZM12.4418 24.4465C12.3227 24.4502 12.2096 24.4967 12.1253 24.5767C12.0411 24.6568 11.9921 24.7643 11.9883 24.8774L11.5195 34.3648L11.9883 40.4967C11.9942 40.6073 12.0446 40.7116 12.1291 40.7879C12.2136 40.8642 12.3258 40.9067 12.4424 40.9067C12.559 40.9067 12.6711 40.8642 12.7556 40.7879C12.8401 40.7116 12.8906 40.6073 12.8965 40.4967L13.4273 34.3648L12.8965 24.8774C12.8927 24.7641 12.8435 24.6564 12.759 24.5764C12.6745 24.4963 12.5611 24.4499 12.4418 24.4465ZM7.63125 27.7441C7.53885 27.7466 7.45096 27.7826 7.3856 27.8447C7.32023 27.9068 7.28234 27.9903 7.27969 28.0781L6.75 34.3625L7.27852 40.4444C7.27852 40.533 7.31556 40.6179 7.38149 40.6806C7.44742 40.7432 7.53684 40.7784 7.63008 40.7784C7.72332 40.7784 7.81274 40.7432 7.87867 40.6806C7.9446 40.6179 7.98164 40.533 7.98164 40.4444L8.58281 34.3625L7.98164 28.0747C7.97786 27.9878 7.93966 27.9054 7.87469 27.8441C7.80972 27.7828 7.72277 27.7471 7.63125 27.7441ZM17.3297 40.9242C17.4764 40.9219 17.6164 40.8656 17.7202 40.7672C17.8241 40.6688 17.8836 40.5359 17.8863 40.3965L18.3469 34.3681L17.8863 21.7368C17.8863 21.5966 17.8277 21.4621 17.7233 21.3629C17.6189 21.2637 17.4773 21.208 17.3297 21.208C17.1821 21.208 17.0405 21.2637 16.9361 21.3629C16.8317 21.4621 16.7731 21.5966 16.7731 21.7368L16.3641 34.367L16.7731 40.3976C16.7755 40.537 16.835 40.6699 16.9389 40.7682C17.0428 40.8665 17.183 40.9225 17.3297 40.9242ZM27.3375 40.9521C27.539 40.9492 27.7313 40.8717 27.8736 40.7361C28.0158 40.6006 28.0968 40.4176 28.0992 40.2262L28.4203 34.3703L28.0992 19.7863C28.0992 19.5944 28.019 19.4104 27.8761 19.2747C27.7333 19.139 27.5395 19.0627 27.3375 19.0627C27.1355 19.0627 26.9417 19.139 26.7989 19.2747C26.656 19.4104 26.5758 19.5944 26.5758 19.7863L26.2887 34.3703C26.2887 34.3792 26.5758 40.234 26.5758 40.234C26.58 40.4241 26.6618 40.6053 26.8039 40.7392C26.946 40.8732 27.1373 40.9495 27.3375 40.9521ZM22.2961 40.9298C22.4707 40.9283 22.6377 40.8616 22.7609 40.7441C22.8842 40.6266 22.9538 40.4678 22.9547 40.3019L23.3461 34.3648L22.9547 21.6422C22.9584 21.5577 22.9442 21.4734 22.9127 21.3943C22.8813 21.3153 22.8333 21.243 22.7718 21.182C22.7102 21.121 22.6362 21.0724 22.5544 21.0393C22.4726 21.0061 22.3845 20.989 22.2955 20.989C22.2065 20.989 22.1185 21.0061 22.0366 21.0393C21.9548 21.0724 21.8808 21.121 21.8193 21.182C21.7577 21.243 21.7097 21.3153 21.6783 21.3943C21.6469 21.4734 21.6326 21.5577 21.6363 21.6422L21.2848 34.3659L21.6363 40.3019C21.6382 40.4673 21.7084 40.6253 21.8318 40.742C21.9552 40.8586 22.122 40.9245 22.2961 40.9253V40.9298ZM10.0266 40.8741C10.132 40.8716 10.2325 40.8309 10.3075 40.7604C10.3824 40.6898 10.4261 40.5947 10.4297 40.4945L10.9957 34.3614L10.4297 28.5278C10.4297 28.4263 10.3872 28.3289 10.3116 28.257C10.236 28.1852 10.1335 28.1449 10.0266 28.1449C9.91965 28.1449 9.81711 28.1852 9.74151 28.257C9.66591 28.3289 9.62344 28.4263 9.62344 28.5278L9.12422 34.3592L9.62344 40.4912C9.62525 40.5922 9.6683 40.6886 9.74351 40.76C9.81872 40.8315 9.92021 40.8724 10.0266 40.8741ZM5.25469 40.5379C5.33267 40.5352 5.4068 40.505 5.46252 40.4531C5.51823 40.4012 5.55153 40.3314 5.55586 40.2574L6.19219 34.357L5.55703 28.2339C5.55703 28.158 5.5253 28.0853 5.46882 28.0316C5.41234 27.978 5.33574 27.9478 5.25586 27.9478C5.17598 27.9478 5.09938 27.978 5.0429 28.0316C4.98642 28.0853 4.95469 28.158 4.95469 28.2339L4.39453 34.357L4.95469 40.2574C4.95736 40.3318 4.98993 40.4025 5.04572 40.4549C5.10151 40.5073 5.17628 40.5374 5.25469 40.539V40.5379ZM24.8074 21.434C24.6187 21.4349 24.4379 21.5067 24.3046 21.6337C24.1714 21.7607 24.0964 21.9327 24.0961 22.112L23.7785 34.3703L24.0961 40.2707C24.1035 40.4451 24.1817 40.6099 24.3142 40.7307C24.4466 40.8516 24.6232 40.9191 24.8068 40.9191C24.9905 40.9191 25.167 40.8516 25.2995 40.7307C25.432 40.6099 25.5101 40.4451 25.5176 40.2707L25.8691 34.3703L25.5176 22.1098C25.5167 21.931 25.4416 21.7598 25.3086 21.6333C25.1757 21.5068 24.9956 21.4352 24.8074 21.434ZM14.8828 40.9365C15.0156 40.9336 15.1422 40.8823 15.2363 40.7932C15.3303 40.7041 15.3846 40.5839 15.3879 40.4578L15.8836 34.367L15.382 22.7109C15.3758 22.5875 15.3198 22.4711 15.2256 22.3859C15.1315 22.3007 15.0064 22.2531 14.8764 22.2531C14.7463 22.2531 14.6213 22.3007 14.5271 22.3859C14.433 22.4711 14.377 22.5875 14.3707 22.7109L13.9324 34.367L14.3719 40.46C14.3749 40.587 14.43 40.7078 14.5255 40.7968C14.6209 40.8858 14.7491 40.9359 14.8828 40.9365ZM20.4105 40.3609L20.8359 34.3714L20.4105 21.3149C20.4142 21.2369 20.4011 21.1591 20.3722 21.0861C20.3433 21.0131 20.2991 20.9464 20.2423 20.89C20.1856 20.8337 20.1174 20.7888 20.0418 20.7582C19.9663 20.7275 19.885 20.7117 19.8029 20.7117C19.7208 20.7117 19.6395 20.7275 19.564 20.7582C19.4885 20.7888 19.4203 20.8337 19.3635 20.89C19.3068 20.9464 19.2626 21.0131 19.2337 21.0861C19.2048 21.1591 19.1917 21.2369 19.1953 21.3149L18.8168 34.3714L19.1953 40.3642C19.1953 40.5172 19.2593 40.6639 19.3731 40.772C19.4869 40.8802 19.6414 40.9409 19.8023 40.9409C19.9633 40.9409 20.1177 40.8802 20.2316 40.772C20.3454 40.6639 20.4094 40.5172 20.4094 40.3642L20.4105 40.3609ZM52.6172 26.8412C51.6379 26.8399 50.6684 27.0254 49.766 27.3867C49.1801 21.021 43.6008 16.0312 36.7981 16.0312C35.1833 16.0341 33.5831 16.3202 32.0777 16.8751C31.5211 17.0811 31.3746 17.2937 31.3676 17.7056V40.1227C31.3708 40.3301 31.4534 40.5293 31.6001 40.683C31.7468 40.8367 31.9475 40.9343 32.1645 40.9576L52.6207 40.9699C56.6965 40.9699 60.0035 37.807 60.0035 33.9061C60.0035 30.0052 56.6988 26.8412 52.6207 26.8412H52.6172ZM29.8582 17.6867C29.6419 17.6885 29.435 17.7713 29.2827 17.9173C29.1304 18.0633 29.0449 18.2605 29.0449 18.466L28.7109 34.3726L29.0449 40.1471C29.0413 40.251 29.0597 40.3545 29.0991 40.4514C29.1386 40.5484 29.1982 40.6367 29.2744 40.7113C29.3506 40.7858 29.4419 40.845 29.5427 40.8852C29.6435 40.9255 29.7519 40.946 29.8613 40.9455C29.9707 40.9451 30.0788 40.9237 30.1793 40.8826C30.2798 40.8415 30.3705 40.7816 30.446 40.7065C30.5215 40.6313 30.5803 40.5424 30.6189 40.4452C30.6574 40.3479 30.6749 40.2443 30.6703 40.1405V40.1471L31.0324 34.3726L30.6703 18.4604C30.6688 18.2561 30.5828 18.0604 30.4309 17.9157C30.279 17.771 30.0733 17.6887 29.8582 17.6867Z" fill="#484848"/>
</g>
<defs>
<clipPath id="clip0_8_50">
<rect width="60" height="57" fill="white"/>
</clipPath>
</defs>
</svg>
