<svg width="60" height="57" viewBox="0 0 60 57" fill="none" xmlns="http://www.w3.org/2000/svg">
<path d="M28.4402 37.885H31.5597V29.8025H39.4113V26.9281H31.5597V18.8456H28.4402V26.9281H20.6882V29.8025H28.4402V37.885ZM13.9757 49.5611H16.623V42.3759H23.6191V40.1305H16.623V32.8563H13.9757V40.1305H6.97961V42.3759H13.9757V49.5611ZM43.3769 23.6016H46.0242V16.4209H53.114V14.2645H46.0242V6.9903H43.3769V14.2645H36.3808V16.4209H43.3769V23.6016ZM28.9124 55.2188H31.1812V50.0977H36.0035V48.214H31.1812V43.0929H28.9124V48.214H24.1863V50.0977H28.9124V55.2188ZM14.0706 23.6016H16.5316V16.3307H23.6226V14.2645H16.5234V6.9903H14.0624V14.2645H6.97961V16.3307H14.0706V23.6016ZM51.0609 34.3826H53.3296V29.3528H58.1249V27.3778H53.3296V22.348H51.0609V27.3778H46.3347V29.3528H51.0609V34.3826Z" fill="#484848"/>
<path fill-rule="evenodd" clip-rule="evenodd" d="M43.3769 49.561H46.0242V42.3759H53.1141V40.1304H46.0242V32.8563H43.3769V40.1304H36.3809V42.3759H43.3769V49.561Z" fill="#484848"/>
<path d="M35.9766 8.24719V6.72088H31.2492V1.78125H29.5477V6.72088H24.8215V8.24719H29.5477V13.1868H31.2492V8.24719H35.9766ZM6.57539 34.023H8.27695V29.0834H13.0078V27.5571H8.27695V22.7109H6.57539V27.5604H1.875V29.1769L6.57539 29.168V34.023Z" fill="#484848"/>
</svg>
