<svg width="54" height="43" viewBox="0 0 54 43" fill="none" xmlns="http://www.w3.org/2000/svg">
<path d="M52.8868 5.69141C52.3008 3.08745 50.8348 1.37411 48.1278 0.540262C45.4207 -0.293586 40.52 0.0392841 37.0981 2.40946C33.9586 4.58147 31.677 8.46794 30.77 11.1242C30.7433 11.2031 30.7402 11.2875 30.7613 11.368C30.7823 11.4484 30.8266 11.5216 30.889 11.5795C30.9515 11.6373 31.0297 11.6775 31.1149 11.6954C31.2001 11.7133 31.2888 11.7083 31.3711 11.6809C32.6332 11.2578 33.9164 10.8904 35.3555 10.9628C37.1133 11.0519 38.2278 12.2987 38.2747 13.7783C38.3098 14.8682 38.2512 15.859 37.8528 16.8599C36.5942 20.0527 34.6172 23.1454 32.2805 25.8496C31.9284 26.2518 31.5359 26.6206 31.1086 26.9506C29.9122 27.8735 28.9043 27.6297 28.1309 26.3717C27.4981 25.3375 27.0762 24.2699 26.7012 23.1343C25.2481 18.7179 24.7313 14.1345 23.911 9.60571C23.5243 7.43704 23.0907 5.17819 21.8016 3.27559C20.4422 1.29507 18.4489 0.539148 15.9422 0.826375C14.2196 1.02677 11.6168 2.7735 10.3395 3.76432C10.3395 3.76432 3.777 8.98227 0.751221 11.7076L3.2356 14.7134C3.2356 14.7134 5.33442 13.323 6.45942 12.6773C7.12739 12.2999 7.91255 12.2219 8.47505 12.6995C9.00356 13.1337 9.60122 13.7015 9.91763 14.2692C10.5856 15.4593 11.2301 16.7051 11.6403 17.9843C13.1872 22.9128 14.6297 27.8524 16.0711 32.8154C16.8094 35.3515 17.7 37.7328 19.3524 39.8903C21.6153 42.8505 23.9942 43.5285 27.6633 42.2827C30.6411 41.2708 33.1254 39.3682 35.3977 37.3988C39.2778 34.0389 42.3258 30.1224 45.4196 26.1391C47.8114 23.0586 49.7918 19.9414 51.4442 16.4591C53.0743 13.0101 53.7188 9.39419 52.8868 5.69141Z" fill="#484848"/>
</svg>
