<svg width="60" height="57" viewBox="0 0 60 57" fill="none" xmlns="http://www.w3.org/2000/svg">
<g clip-path="url(#clip0_8_55)">
<path d="M47.891 33.2348C47.4038 33.237 46.9268 33.1018 46.5206 32.8462C46.1144 32.5907 45.7971 32.2263 45.609 31.7993C45.421 31.3723 45.3706 30.9019 45.4642 30.4477C45.5578 29.9934 45.7913 29.5758 46.135 29.2477C46.4787 28.9197 46.9172 28.6959 47.3948 28.6048C47.8725 28.5137 48.368 28.5593 48.8183 28.7359C49.2687 28.9125 49.6537 29.2122 49.9246 29.5969C50.1956 29.9816 50.3402 30.434 50.3402 30.8969C50.3425 31.2036 50.2809 31.5077 50.1587 31.7916C50.0366 32.0755 49.8565 32.3336 49.6288 32.551C49.401 32.7684 49.1302 32.9408 48.8319 33.0581C48.5336 33.1755 48.2138 33.2355 47.891 33.2348V33.2348ZM35.9179 33.2348C35.4307 33.237 34.9538 33.1018 34.5475 32.8462C34.1413 32.5907 33.8241 32.2263 33.636 31.7993C33.4479 31.3723 33.3975 30.9019 33.4912 30.4477C33.5848 29.9934 33.8182 29.5758 34.1619 29.2477C34.5056 28.9197 34.9441 28.6959 35.4218 28.6048C35.8995 28.5137 36.3949 28.5593 36.8453 28.7359C37.2956 28.9125 37.6807 29.2122 37.9516 29.5969C38.2225 29.9816 38.3672 30.434 38.3672 30.8969C38.3696 31.2036 38.3081 31.5078 38.186 31.7918C38.064 32.0758 37.8838 32.3339 37.6561 32.5513C37.4283 32.7688 37.1574 32.9411 36.859 33.0584C36.5607 33.1757 36.2408 33.2357 35.9179 33.2348V33.2348ZM53.741 46.4673C57.5508 43.8722 60 39.9813 60 35.5705C60 27.6573 51.9726 21.1702 41.9051 21.1702C31.8375 21.1702 23.809 27.6573 23.809 35.5705C23.809 43.4837 31.8363 49.9696 41.9051 49.9696C43.9453 49.9696 45.9867 49.7102 47.7551 49.1903C48.0469 49.0946 48.1629 49.0601 48.2988 49.0601C48.6347 49.0676 48.9628 49.1574 49.2515 49.3206L53.2031 51.526C53.3309 51.5897 53.4686 51.6336 53.6109 51.6563C53.7525 51.6471 53.8857 51.5895 53.9859 51.4941C54.0861 51.3987 54.1465 51.272 54.1558 51.1375C54.1468 50.9909 54.1164 50.8463 54.0656 50.7077C54.0176 50.5452 53.4797 48.9265 53.2031 47.8945C53.1777 47.7671 53.1648 47.6378 53.1644 47.5082C53.166 47.3025 53.2202 47.1004 53.3223 46.9191C53.4243 46.7377 53.5713 46.5827 53.7504 46.4673" fill="#484848"/>
<path d="M28.8432 19.8732C28.0827 19.8732 27.3533 19.5862 26.8156 19.0753C26.2778 18.5644 25.9757 17.8715 25.9757 17.149C25.9757 16.4265 26.2778 15.7336 26.8156 15.2227C27.3533 14.7118 28.0827 14.4248 28.8432 14.4248C30.3397 14.4248 31.7003 15.7218 31.7003 17.149C31.8362 18.5762 30.4757 19.8732 28.8432 19.8732ZM14.4221 19.8732C13.8547 19.8752 13.2995 19.7172 12.8266 19.4193C12.3538 19.1213 11.9846 18.6968 11.7658 18.1995C11.547 17.7021 11.4884 17.1543 11.5975 16.6253C11.7066 16.0963 11.9784 15.61 12.3785 15.2278C12.7787 14.8457 13.2892 14.5849 13.8454 14.4784C14.4016 14.372 14.9786 14.4247 15.5033 14.6299C16.028 14.8351 16.4768 15.1836 16.7929 15.6312C17.109 16.0788 17.2782 16.6055 17.2792 17.1445C17.2761 17.8644 16.9745 18.5541 16.4396 19.0641C15.9048 19.5741 15.1799 19.8632 14.4221 19.8687V19.8732ZM21.6327 5.34375C9.65964 5.34375 -0.00012207 12.9976 -0.00012207 22.5996C-0.00012207 27.7886 2.85691 32.4588 7.4823 35.5727C7.89128 35.8298 7.96863 36.4043 7.96863 36.627C7.97843 36.7968 7.95213 36.9668 7.89128 37.1268C7.4823 38.4238 6.96081 40.5234 6.93855 40.6348C6.91628 40.7461 6.80261 41.0244 6.80261 41.1536C6.79681 41.2399 6.81039 41.3265 6.84245 41.4075C6.87451 41.4885 6.92431 41.5622 6.98857 41.6235C7.05283 41.6849 7.13007 41.7326 7.21518 41.7634C7.3003 41.7943 7.39135 41.8077 7.4823 41.8026C7.62826 41.7938 7.76926 41.7489 7.89128 41.6723L12.6561 39.0762C13.0651 38.8168 13.337 38.8168 13.7448 38.8168C13.9781 38.82 14.2089 38.8638 14.4257 38.9459C16.6018 39.595 19.051 39.8544 21.5003 39.8544H22.7249C22.2788 38.4668 22.0494 37.0246 22.044 35.5738C22.044 26.8813 30.8882 19.8765 41.7725 19.8765H42.9971C41.496 11.7006 32.5171 5.34375 21.6327 5.34375Z" fill="#484848"/>
</g>
<defs>
<clipPath id="clip0_8_55">
<rect width="60" height="57" fill="white"/>
</clipPath>
</defs>
</svg>
